# xmcd
#
# Track frame offsets:
#	150
#	15029
#	29575
#	43433
#	55306
#	66968
#	78466
#	89989
#	99909
#	108767
#	123775
#	137194
#	150849
#	163432
#
# Disc length: 2332 seconds
# Revision: 0
# Processed by: cddbd v1.5.2PL0 Copyright (c) Steve Scherf et al.
# Submitted via: dBpowerAMP V12.0
#
DISCID=b6091a0e
DTITLE=Willie Nelson - Face of a Fighter
DYEAR=2004
DGENRE=Country
TTITLE0=And So Will You My Love
TTITLE1=Will You Remember Mine
TTITLE2=Home Is Where You're Happy
TTITLE3=I Hope So
TTITLE4=Some Other Time
TTITLE5=I'll Stay Around
TTITLE6=Is There Something on Your Mind
TTITLE7=Broken Promises
TTITLE8=Waiting Time
TTITLE9=Face of a Fighter
TTITLE10=No Tomorrow in Sight
TTITLE11=Everything But You
TTITLE12=Shelter of Your Arms
TTITLE13=Happiness Lives Next Door
EXTD=
EXTT0=
EXTT1=
EXTT2=
EXTT3=
EXTT4=
EXTT5=
EXTT6=
EXTT7=
EXTT8=
EXTT9=
EXTT10=
EXTT11=
EXTT12=
EXTT13=
PLAYORDER=
